<svg width="700pt" height="700pt" viewBox="0 0 700 700" xmlns="http://www.w3.org/2000/svg">
  <path
    d="M350.315 13.811c-184.345 0-334.496 150.152-334.496 334.497 0 162.788 115.957 297.33 269.083 327.806 2.97-6.69 6.69-14.865 8.177-23.042-1.487-8.176-2.23-16.353-4.46-23.042-7.434-23.789-16.353-47.572-25.27-71.361-4.46-13.378-16.354-13.378-28.99-11.894-19.327 1.487-40.137 4.458-59.468 2.229-29.73-2.97-36.424-15.613-35.68-45.343.744-8.176-1.486-20.07-6.686-26.019-10.407-10.406-6.69-17.841 0-26.76-1.488 0-3.718-.742-5.206-.742-.742-7.434-4.46-15.612-2.971-22.3 2.97-16.352 0-22.302-16.353-28.248-5.206-1.487-9.666-2.97-14.867-5.947-13.377-7.436-16.353-15.612-8.176-29.73 13.377-23.79 28.99-47.573 42.372-72.103 4.46-7.436 2.972-19.326 2.972-28.99 0-10.406-5.206-22.3-2.972-32.707 5.947-20.813 12.636-41.626 21.554-60.955 20.813-46.831 59.467-75.076 107.04-87.71 54.262-14.866 111.498-20.813 165.761-5.206 72.103 20.813 150.895 83.996 150.895 173.195 0 29.73-6.689 61.696-19.325 88.455-36.423 77.305-43.113 112.988-23.042 195.495 0 0 0 7.436 12.637 27.503 0 0 13.377 15.612 31.22 36.423C641.705 536.36 685.561 447.163 685.561 348.3c-1.488-185.088-150.895-334.496-335.24-334.496z" />
  <path
    d="M538.376 230.861c3.716-2.23 5.946-6.69 5.946-11.147a13.32 13.32 0 00-13.377-13.377 13.32 13.32 0 00-13.376 13.377c0 4.458 2.23 8.917 5.947 11.147l-.005 21.554L400.865 374.32v-15.612l56.492-56.492h2.97a13.32 13.32 0 0013.377-13.377 13.32 13.32 0 00-13.377-13.377 13.32 13.32 0 00-13.377 13.377v2.97l-46.085 46.087V323.77l89.945-89.945v-51.29c3.718-2.23 5.946-6.69 5.946-11.15a13.32 13.32 0 00-13.376-13.375 13.32 13.32 0 00-13.377 13.377c0 4.46 2.23 8.919 5.947 11.147v44.602l-89.956 90.691V676.11c0 4.46 2.972 7.436 7.436 7.436 4.46 0 7.436-2.97 7.436-7.436V395.876l137.515-137.515zm-78.05 51.29a6.66 6.66 0 016.69 6.69 6.658 6.658 0 01-6.69 6.688 6.66 6.66 0 01-6.69-6.689 6.663 6.663 0 016.69-6.688zm23.046-117.445a6.66 6.66 0 016.69 6.69 6.66 6.66 0 01-6.69 6.688 6.66 6.66 0 01-6.69-6.689 6.655 6.655 0 016.69-6.689zm47.573 61.696a6.66 6.66 0 01-6.69-6.69 6.658 6.658 0 016.69-6.687 6.66 6.66 0 016.69 6.689 6.665 6.665 0 01-6.69 6.688zm-341.932 22.299l-10.406-10.407v-2.97a13.32 13.32 0 00-13.378-13.378 13.32 13.32 0 00-13.377 13.378A13.32 13.32 0 00165.23 248.7h2.972l14.124 14.123h112.988l55.006 55.009v17.84l-50.544-50.543H238.82l-2.23-2.23v-2.97a13.32 13.32 0 00-13.376-13.377 13.32 13.32 0 00-13.377 13.377 13.32 13.32 0 0013.377 13.377h2.97l5.947 5.946 62.434-.005 56.492 56.493.005 320.373c0 4.458 2.97 7.434 7.435 7.434 4.46 0 7.435-2.97 7.435-7.436l-.005-363.485-63.926-63.926zm-23.042-5.943a6.66 6.66 0 01-6.69-6.688 6.661 6.661 0 016.69-6.689 6.661 6.661 0 016.69 6.69 6.662 6.662 0 01-6.69 6.687zm57.98 45.338a6.66 6.66 0 01-6.69-6.689 6.661 6.661 0 016.69-6.689 6.661 6.661 0 016.69 6.69 6.66 6.66 0 01-6.69 6.688z" />
  <path
    d="M406.064 235.32a13.32 13.32 0 0013.377 13.378 13.32 13.32 0 0013.377-13.377v-2.97l16.354-16.354v-72.102c3.716-2.23 5.946-6.69 5.946-11.149a13.32 13.32 0 00-13.377-13.377 13.32 13.32 0 00-13.377 13.377c0 4.46 2.23 8.92 5.948 11.149v66.156l-11.893 11.893h-2.974a13.319 13.319 0 00-13.381 13.378zm35.678-110.01a6.66 6.66 0 016.69 6.69 6.658 6.658 0 01-6.69 6.687 6.66 6.66 0 01-6.69-6.688c0-2.976 2.978-6.689 6.69-6.689zm-22.295 103.322a6.66 6.66 0 016.69 6.69 6.66 6.66 0 01-6.69 6.688 6.66 6.66 0 01-6.69-6.69 6.655 6.655 0 016.69-6.688zm122.645 75.818a13.32 13.32 0 00-13.377 13.377v2.971l-7.436 7.436h-30.476l-69.876 69.132v278.746c0 4.46 2.972 7.436 7.435 7.436 4.46 0 7.436-2.972 7.436-7.436V404.056l60.956-60.956h30.476l11.148-11.148h2.971a13.32 13.32 0 0013.377-13.377c1.488-8.182-4.46-14.13-12.636-14.13zm0 20.071a6.66 6.66 0 01-6.69-6.69 6.658 6.658 0 016.69-6.687 6.66 6.66 0 016.69 6.689c.746 3.716-2.23 6.688-6.69 6.688z" />
  <path
    d="M503.44 383.243c-4.46 0-8.919 2.23-11.148 5.946l-19.326-.004-16.353 16.353v270.57c0 4.46 2.972 7.435 7.436 7.435 4.46 0 7.436-2.97 7.436-7.434l-.006-263.88 8.177-8.177h12.636c2.23 3.716 6.689 5.946 11.148 5.946a13.32 13.32 0 0013.377-13.377c.005-6.694-5.943-13.382-13.377-13.382zm0 20.813a6.66 6.66 0 01-6.69-6.69 6.66 6.66 0 016.69-6.688 6.66 6.66 0 016.69 6.689 6.66 6.66 0 01-6.69 6.689zM396.4 279.177a13.32 13.32 0 0013.378-13.377 13.32 13.32 0 00-13.377-13.377 13.32 13.32 0 00-13.377 13.377c0 1.488 0 2.97.742 4.46l-8.92 8.917-59.466-59.466H197.93l-20.814-20.813v-2.973a13.32 13.32 0 00-13.377-13.376 13.32 13.32 0 00-13.377 13.377 13.32 13.32 0 0013.377 13.377h2.97l25.274 25.272 117.445.005 65.412 65.413 20.072-20.07c.742-1.488 1.487-.747 1.487-.747zm-232.66-78.05a6.66 6.66 0 01-6.69-6.69 6.658 6.658 0 016.69-6.688 6.66 6.66 0 016.69 6.69 6.66 6.66 0 01-6.69 6.688zm225.97 63.926a6.66 6.66 0 016.69-6.69 6.658 6.658 0 016.688 6.69 6.66 6.66 0 01-6.689 6.69 6.66 6.66 0 01-6.688-6.69zM276.727 108.21c4.46 0 8.918-2.23 11.147-5.947h11.894l57.238 57.236v2.972a13.32 13.32 0 0013.377 13.378 13.32 13.32 0 0013.377-13.378 13.32 13.32 0 00-13.377-13.377h-2.97L305.714 87.4h-18.583c-2.23-3.718-6.69-5.946-11.147-5.946a13.32 13.32 0 00-13.377 13.376c-.006 7.437 5.941 13.383 14.118 13.383zm94.398 47.573a6.66 6.66 0 016.69 6.69 6.658 6.658 0 01-6.69 6.687 6.66 6.66 0 01-6.69-6.689 6.662 6.662 0 016.69-6.688zm-94.398-68.386a6.66 6.66 0 016.69 6.69 6.658 6.658 0 01-6.69 6.687 6.66 6.66 0 01-6.69-6.688 6.66 6.66 0 016.69-6.689z" />
  <path
    d="M189.757 177.342h2.97l23.79 23.789h88.456l-48.313-48.314v-2.97a13.32 13.32 0 00-13.377-13.378 13.32 13.32 0 00-13.378 13.378 13.32 13.32 0 0013.378 13.377h2.972l23.041 23.041H223.21l-20.07-20.07v-2.973a13.32 13.32 0 00-13.377-13.377 13.32 13.32 0 00-13.377 13.377c-.005 8.173 5.941 14.12 13.372 14.12zm53.519-20.072a6.66 6.66 0 01-6.69-6.69 6.658 6.658 0 016.69-6.687 6.66 6.66 0 016.69 6.689 6.655 6.655 0 01-6.69 6.688zm-53.52 0a6.66 6.66 0 016.69 6.69 6.66 6.66 0 01-6.69 6.688 6.66 6.66 0 01-6.69-6.689 6.665 6.665 0 016.69-6.689z" />
  <path
    d="M201.65 147.609a13.32 13.32 0 0013.377-13.378v-2.97l17.095-17.097h15.613L371.87 238.3l39.396-39.397v-89.195l-23.042-23.043h-17.84c-2.23-3.716-6.69-5.946-11.148-5.946a13.32 13.32 0 00-13.377 13.377 13.32 13.32 0 0013.377 13.377c4.459 0 8.917-2.23 11.147-5.947h11.893l14.126 14.124.005 77.304-24.53 24.53L253.686 99.295h-28.249l-21.554 21.555h-2.97a13.32 13.32 0 00-13.377 13.377c.74 7.44 6.688 13.383 14.119 13.383zm157.585-46.085a6.66 6.66 0 01-6.69-6.69 6.658 6.658 0 016.69-6.687 6.66 6.66 0 016.69 6.688 6.663 6.663 0 01-6.69 6.689zM201.65 127.543a6.66 6.66 0 016.69 6.69 6.66 6.66 0 01-6.69 6.687 6.66 6.66 0 01-6.69-6.689 6.661 6.661 0 016.69-6.688z" />
</svg>
